<svg width="42" height="38" viewBox="0 0 42 38" fill="none" xmlns="http://www.w3.org/2000/svg">
<path fill-rule="evenodd" clip-rule="evenodd" d="M20 0.0305463C14.8621 0.348376 10.1984 3.54029 7.99377 8.24776C7.40628 9.50215 6.9914 10.8488 6.81761 12.0652C6.77125 12.3899 6.71584 12.7654 6.69459 12.8997L6.65586 13.144L5.96062 13.1891C4.39957 13.2901 2.88535 14.0986 1.96587 15.3217C1.53037 15.9011 1.2977 16.348 1.05583 17.07C0.879045 17.5977 0.873535 17.6979 0.873535 20.369V23.1239L1.09518 23.7536C1.71974 25.5279 3.23081 26.9396 4.97069 27.3744C5.63452 27.5403 6.97471 27.6328 7.70341 27.5632C8.36913 27.4995 8.70971 27.347 8.97236 26.9947C9.13702 26.7739 9.13828 26.7303 9.18165 19.8714C9.22833 12.4701 9.22101 12.6091 9.64769 11.0883C9.99827 9.83887 10.7133 8.38872 11.4965 7.3385C13.2868 4.93786 15.9039 3.3066 18.898 2.72493C19.9086 2.52863 22.012 2.53005 23.0697 2.72785C27.5505 3.56563 31.1152 6.81949 32.3538 11.2024C32.7406 12.5715 32.7399 12.5561 32.786 19.8714C32.829 26.6786 32.8319 26.7755 32.9917 26.9947C33.0808 27.1168 33.311 27.2993 33.5033 27.4002C33.8396 27.5766 33.9037 27.5821 35.1909 27.5449C36.7281 27.5004 37.1695 27.4078 38.1286 26.9283C39.3696 26.3079 40.3894 25.1277 40.872 23.7536L41.0931 23.1239L41.1184 20.6122C41.1397 18.4903 41.1233 18.0077 41.0122 17.5031C40.4859 15.112 38.4375 13.3465 36.0071 13.1891L35.3118 13.144L35.2727 12.8997C35.2512 12.7654 35.1953 12.3821 35.1483 12.048C34.9819 10.8646 34.4176 9.09939 33.8341 7.93677C32.471 5.2209 30.1176 2.85851 27.4391 1.51721C25.1335 0.362701 22.651 -0.133406 20 0.0305463ZM6.15543 29.214C6.32859 30.1806 6.89443 31.519 7.52844 32.4615C7.97157 33.1204 9.16434 34.304 9.80708 34.7225C11.3176 35.7063 12.7973 36.1503 14.5657 36.1503H15.5529V35.4531V34.7559L14.51 34.7117C13.2574 34.6588 12.4932 34.4772 11.4993 33.9965C9.9656 33.2548 8.83494 32.0993 8.11482 30.5377C7.97118 30.2264 7.79983 29.7645 7.73395 29.5114C7.66807 29.2583 7.60282 29.0415 7.58904 29.0297C7.57519 29.0178 7.23548 28.9903 6.83406 28.9684L6.10426 28.9286L6.15543 29.214ZM18.78 32.9945C18.0657 33.221 17.4526 33.7521 17.136 34.4187C16.8591 35.0015 16.8506 35.9252 17.1169 36.4759C17.3993 37.0597 17.793 37.4576 18.3685 37.7409L18.8949 38H20.984H23.073L23.5994 37.7409C24.1747 37.4576 24.5685 37.0596 24.8508 36.4759C25.1171 35.9252 25.1085 35.0015 24.8317 34.4187C24.5842 33.8976 24.1529 33.4533 23.6206 33.1712L23.2271 32.9626L21.1019 32.9473C19.9331 32.939 18.8882 32.9602 18.78 32.9945Z" fill="#D72638"/>
</svg>
