<svg width="200" height="200" viewBox="0 0 200 200" fill="none" xmlns="http://www.w3.org/2000/svg">
<path d="M157.917 123.207C153.992 115.024 139.95 103.665 126.384 92.6903C118.817 86.5735 111.667 80.7903 107.109 76.2321C105.967 75.0821 104.259 74.7153 102.75 75.257C99.9423 76.2738 98.2087 77.057 96.8423 77.6653C94.7591 78.5985 94.0591 78.9153 91.2505 79.1985C90.6389 79.2588 90.0483 79.4538 89.521 79.7693C88.9937 80.0848 88.5427 80.5131 88.2005 81.0235C82.3087 89.8317 76.2087 89.0817 72.1337 87.7152C70.8337 87.282 70.6005 86.7235 70.4755 86.1903C69.6005 82.5321 73.9923 74.0153 79.6837 68.3235C93.2255 54.7735 100.209 51.3817 114.959 57.9735C131.692 65.4567 148.459 71.3153 148.625 71.3735C149.142 71.5545 149.69 71.6317 150.237 71.6006C150.784 71.5695 151.319 71.4307 151.813 71.1922C152.306 70.9538 152.747 70.6203 153.111 70.2109C153.475 69.8015 153.755 69.3243 153.934 68.8067C154.684 66.6317 153.542 64.2567 151.367 63.4985C151.2 63.4403 134.767 57.6985 118.367 50.3567C99.2587 41.8149 88.7751 47.4399 73.8001 62.4235C68.1001 68.1235 60.3583 79.6567 62.3583 88.1152C63.2165 91.7153 65.7501 94.382 69.5165 95.6235C78.9583 98.7403 87.5747 95.7567 93.9915 87.2403C96.6415 86.8321 98.0833 86.232 100.25 85.257C101.214 84.8216 102.186 84.4049 103.166 84.007C107.933 88.482 114.366 93.6903 121.141 99.1653C133.391 109.073 147.283 120.307 150.408 126.807C151.95 130.015 150.291 132.107 149.166 133.065C147.516 134.482 145.258 134.932 144.033 134.073C142.683 133.148 140.925 133.09 139.533 133.923C138.848 134.332 138.295 134.928 137.939 135.641C137.583 136.355 137.439 137.156 137.525 137.948C137.808 140.598 135.383 142.115 134.333 142.64C131.666 143.99 128.883 143.757 127.841 142.79C126.675 141.707 125 141.39 123.516 141.94C122.033 142.498 121 143.865 120.85 145.448C120.6 148.182 118.575 150.807 115.933 151.832C114.658 152.315 112.808 152.607 111.15 151.09C110.641 150.632 110.029 150.304 109.365 150.136C108.702 149.967 108.007 149.963 107.341 150.123C106.675 150.286 106.06 150.61 105.549 151.068C105.039 151.526 104.65 152.103 104.416 152.748C104.258 153.165 103.9 154.165 99.9997 154.165C97.2247 154.165 92.2329 152.29 89.7915 150.673C86.8665 148.748 68.5247 135.065 52.6833 121.798C50.4583 119.923 46.6083 115.906 43.2083 112.356C40.1915 109.206 37.4333 106.348 36.0165 105.148C34.2415 103.648 31.6165 103.873 30.1415 105.64C28.6583 107.398 28.8747 110.032 30.6333 111.515C31.9251 112.607 34.4251 115.248 37.1833 118.123C40.9001 122.006 44.7415 126.023 47.3251 128.19C62.8419 141.182 81.4919 155.207 85.2083 157.648C88.2751 159.665 94.8833 162.498 100 162.498C104.108 162.498 107.267 161.556 109.458 159.715C112.391 160.857 115.725 160.865 118.933 159.615C122.725 158.148 125.841 155.19 127.608 151.607C130.891 152.307 134.65 151.815 138.066 150.098C141.408 148.415 143.825 145.84 145.025 142.832C148.341 143.007 151.758 141.832 154.583 139.407C159.367 135.315 160.683 128.949 157.917 123.207Z" fill="#D72638"/>
<path d="M83.3333 54.1653H45.8333C43.5333 54.1653 41.6665 56.0321 41.6665 58.3321C41.6665 60.6321 43.5333 62.4988 45.8333 62.4988H83.3333C85.6333 62.4988 87.5001 60.6321 87.5001 58.3321C87.5001 56.0321 85.6333 54.1653 83.3333 54.1653ZM170.125 114.34C168.833 112.432 166.25 111.907 164.342 113.207L152.159 121.39C150.25 122.673 149.742 125.265 151.025 127.173C151.409 127.74 151.925 128.205 152.53 128.526C153.134 128.847 153.808 129.015 154.492 129.015C155.284 129.015 156.092 128.79 156.809 128.307L168.992 120.124C170.9 118.84 171.408 116.249 170.125 114.34ZM144.258 134.224C141.275 131.874 127.933 118.216 119.683 109.616C118.092 107.949 115.45 107.891 113.792 109.491C112.125 111.082 112.075 113.724 113.667 115.382C115.808 117.616 134.7 137.307 139.092 140.774C139.825 141.353 140.732 141.667 141.666 141.666C142.891 141.666 144.117 141.116 144.95 140.074C146.375 138.274 146.067 135.649 144.258 134.224ZM127.608 142.582C122.617 138.59 110.075 125.265 107.242 122.182C105.675 120.482 103.05 120.382 101.35 121.932C99.6579 123.49 99.5415 126.132 101.1 127.824C101.25 127.982 116.216 144.141 122.4 149.091C123.139 149.678 124.055 149.998 125 149.999C126.216 149.999 127.433 149.457 128.258 148.441C129.692 146.64 129.4 144.015 127.608 142.582ZM111.025 150.974C105.083 145.966 92.9251 133.024 90.5501 130.482C88.9751 128.799 86.3333 128.707 84.6583 130.282C82.9751 131.857 82.8915 134.49 84.4583 136.174C87.8751 139.832 99.5083 152.166 105.65 157.349C106.4 157.983 107.351 158.332 108.333 158.332C109.517 158.332 110.7 157.824 111.525 156.849C113.008 155.082 112.783 152.457 111.025 150.974Z" fill="#D72638"/>
<path d="M48.7 46.9738C41.5582 40.207 13 38.0152 4.4168 37.507C3.23359 37.4488 2.1418 37.8402 1.30859 38.632C0.895133 39.0216 0.565751 39.4917 0.340708 40.0134C0.115664 40.535 -0.000281971 41.0971 5.14934e-07 41.6652V116.665C5.14934e-07 118.965 1.8668 120.832 4.1668 120.832H29.1668C30.9668 120.832 32.5668 119.674 33.125 117.957C33.7332 116.09 48.0918 72.0238 49.9832 50.357C50.0918 49.0902 49.625 47.8402 48.7 46.9738ZM26.125 112.499H8.3332V46.132C21.725 47.1902 36.175 49.4902 41.425 52.0402C39.2168 70.2902 29.225 102.715 26.125 112.499ZM195.833 45.832C163.116 45.832 144.966 54.207 144.208 54.557C143.125 55.0652 142.316 56.007 141.983 57.1488C141.65 58.2906 141.816 59.5156 142.441 60.532C147.591 68.8238 163.716 114.874 166.816 126.107C167.059 126.986 167.583 127.761 168.309 128.314C169.034 128.866 169.921 129.165 170.833 129.165H195.833C198.133 129.165 200 127.298 200 124.998V49.9984C200 49.4511 199.893 48.9091 199.684 48.4034C199.475 47.8977 199.168 47.4382 198.781 47.0512C198.394 46.6642 197.934 46.3573 197.428 46.1481C196.923 45.9389 196.381 45.8315 195.833 45.832ZM191.667 120.832H173.95C170 107.965 158.333 74.4152 151.825 60.5488C158.183 58.3906 171.842 54.682 191.667 54.2156V120.832Z" fill="#D72638"/>
</svg>
