<svg width="200" height="200" viewBox="0 0 200 200" fill="none" xmlns="http://www.w3.org/2000/svg">
<g clip-path="url(#clip0_2048_450)">
<path d="M186.75 78.1914L175.633 76.2383C174.237 71.7758 172.448 67.4463 170.285 63.3008L176.762 54.0703C181.236 47.7059 180.481 39.0449 174.973 33.5508L166.445 25.0234C160.951 19.5152 152.29 18.7602 145.926 23.2344L136.691 29.7109C132.546 27.5485 128.216 25.7589 123.754 24.3633L121.801 13.2461C120.456 5.58829 113.806 0.00235456 106.031 1.08086e-05H93.9688C86.1875 -0.00897357 79.5297 5.58399 78.1953 13.25L76.2422 24.3633C71.7796 25.7585 67.45 27.5482 63.3047 29.7109L54.0742 23.2344C47.7098 18.7602 39.0488 19.5152 33.5547 25.0234L25.0234 33.5547C19.5152 39.0488 18.7602 47.7098 23.2344 54.0742L29.707 63.3047C27.5446 67.4502 25.755 71.7798 24.3594 76.2422L13.2461 78.1953C5.58165 79.5313 -0.00897356 86.1891 1.08132e-05 93.9688V106.031C0.000792063 113.809 5.58907 120.462 13.25 121.805L24.3633 123.758C25.7585 128.22 27.5482 132.55 29.7109 136.695L23.2344 145.926C18.7602 152.29 19.5152 160.951 25.0234 166.445L33.5547 174.977C39.0488 180.485 47.7098 181.24 54.0742 176.766L63.3047 170.293C67.45 172.456 71.7795 174.246 76.2422 175.641L78.1953 186.758C79.5328 194.421 86.1902 200.009 93.9688 200H106.031C113.811 200.009 120.469 194.418 121.805 186.754C122.29 183.991 120.444 181.359 117.682 180.873C114.919 180.388 112.286 182.234 111.801 184.996C111.563 186.354 110.854 187.584 109.799 188.47C108.743 189.357 107.41 189.843 106.031 189.844H93.9688C92.5898 189.844 91.2549 189.358 90.1989 188.472C89.1429 187.585 88.4334 186.354 88.1953 184.996L85.6992 170.766C85.5335 169.815 85.1005 168.932 84.451 168.219C83.8014 167.505 82.9621 166.992 82.0313 166.738C76.2577 165.193 70.7107 162.9 65.5313 159.918C64.6918 159.432 63.7306 159.196 62.7615 159.239C61.7923 159.282 60.8557 159.602 60.0625 160.16L48.2461 168.449C47.1174 169.24 45.7459 169.608 44.3727 169.488C42.9995 169.368 41.7126 168.768 40.7383 167.793L32.207 159.262C31.232 158.287 30.6317 157.001 30.5117 155.627C30.3917 154.254 30.7596 152.883 31.5508 151.754L39.8438 139.941C40.4024 139.148 40.7221 138.212 40.765 137.242C40.8079 136.273 40.5723 135.312 40.0859 134.473C37.1011 129.292 34.8056 123.744 33.2578 117.969C33.0075 117.034 32.4954 116.191 31.782 115.538C31.0685 114.884 30.1833 114.448 29.2305 114.281L15.0039 111.785C13.649 111.548 12.4209 110.841 11.5346 109.789C10.6483 108.737 10.1604 107.407 10.1563 106.031V93.9688C10.1567 92.5905 10.643 91.2565 11.5296 90.2013C12.4162 89.1461 13.6464 88.4372 15.0039 88.1992L29.2344 85.7031C30.1845 85.5364 31.0675 85.1026 31.7801 84.4523C32.4926 83.802 33.0052 82.9622 33.2578 82.0313C34.8047 76.2565 37.0989 70.7083 40.082 65.5274C40.5684 64.6879 40.804 63.7267 40.7611 62.7575C40.7181 61.7884 40.3985 60.8518 39.8399 60.0586L31.5508 48.2461C30.7596 47.1174 30.3917 45.7459 30.5117 44.3727C30.6317 42.9995 31.232 41.7126 32.207 40.7383L40.7383 32.207C41.7126 31.232 42.9995 30.6317 44.3727 30.5117C45.7459 30.3917 47.1174 30.7596 48.2461 31.5508L60.0586 39.8438C60.8518 40.4024 61.7884 40.7221 62.7575 40.765C63.7267 40.8079 64.6879 40.5723 65.5274 40.0859C70.7079 37.102 76.2562 34.8078 82.0313 33.2617C82.9657 33.0114 83.8091 32.4993 84.4624 31.7859C85.1157 31.0724 85.5516 30.1872 85.7188 29.2344L88.2149 15.0039C88.4524 13.649 89.159 12.4209 90.211 11.5346C91.2629 10.6483 92.5932 10.1604 93.9688 10.1563H106.031C107.41 10.1558 108.745 10.6416 109.801 11.5283C110.857 12.415 111.567 13.6457 111.805 15.0039L114.301 29.2344C114.466 30.1848 114.899 31.0683 115.549 31.7815C116.199 32.4947 117.038 33.0082 117.969 33.2617C123.742 34.809 129.289 37.1031 134.469 40.0859C135.308 40.5723 136.269 40.8079 137.239 40.765C138.208 40.7221 139.144 40.4024 139.938 39.8438L151.754 31.5547C152.883 30.7635 154.254 30.3956 155.627 30.5156C157.001 30.6356 158.287 31.2359 159.262 32.2109L167.793 40.7422C168.768 41.7165 169.368 43.0034 169.488 44.3766C169.608 45.7498 169.24 47.1213 168.449 48.25L160.156 60.0625C159.598 60.8557 159.278 61.7923 159.235 62.7615C159.192 63.7306 159.428 64.6918 159.914 65.5313C162.897 70.7111 165.191 76.2579 166.738 82.0313C166.989 82.965 167.502 83.8076 168.215 84.4601C168.928 85.1126 169.813 85.5479 170.766 85.7149L184.996 88.211C186.352 88.4486 187.58 89.1558 188.467 90.2086C189.353 91.2613 189.841 92.5925 189.844 93.9688V106.031C189.844 107.41 189.358 108.745 188.472 109.801C187.585 110.857 186.354 111.567 184.996 111.805C182.234 112.29 180.388 114.923 180.873 117.686C181.359 120.448 183.991 122.294 186.754 121.809C194.42 120.472 200.011 113.813 200 106.031V93.9688C200.001 86.1899 194.412 79.5348 186.75 78.1914Z" fill="#D72638"/>
<path d="M185.574 152.941L153.09 119.469C150.991 117.318 149.384 114.737 148.378 111.905C147.373 109.072 146.993 106.056 147.266 103.062C149.597 76.3934 129.868 52.884 103.199 50.5527C100.367 50.3051 97.519 50.307 94.6877 50.5586C92.469 50.739 90.3841 51.693 88.7971 53.2539C84.9357 57.0516 84.8764 63.2578 88.6643 67.1289L102.66 81.3984C105.505 84.2957 105.462 88.95 102.565 91.7945L102.563 91.7969L91.7268 102.426C88.8279 105.268 84.1748 105.222 81.3322 102.324L67.3361 88.0547C63.5385 84.1934 57.3322 84.134 53.4611 87.9219C51.8677 89.4784 50.8722 91.5455 50.6486 93.7617C47.7689 120.377 67.0107 144.287 93.626 147.167C96.4537 147.473 99.3029 147.53 102.141 147.336C105.132 147.121 108.135 147.557 110.942 148.613C113.749 149.669 116.294 151.32 118.403 153.453L150.867 186.902C152.821 188.915 156.036 188.963 158.049 187.01C160.062 185.056 160.11 181.841 158.156 179.828L125.672 146.359C122.536 143.174 118.748 140.706 114.567 139.124C110.386 137.543 105.912 136.886 101.453 137.199C80.3412 138.646 62.0537 122.704 60.6068 101.592C60.4736 99.6478 60.4889 97.696 60.6525 95.7539L74.0744 109.426C75.6809 111.072 77.598 112.384 79.7149 113.284C81.8317 114.185 84.1061 114.656 86.4064 114.672H86.5783C91.1605 114.686 95.5629 112.89 98.8283 109.676L109.664 99.0469C116.567 92.2758 116.673 81.1918 109.903 74.2891L96.4807 60.6172C117.597 59.2379 135.834 75.2379 137.213 96.3543C137.34 98.3 137.319 100.253 137.149 102.195C136.749 106.642 137.317 111.123 138.814 115.329C140.311 119.536 142.702 123.368 145.821 126.562L178.286 160.016C180.239 162.029 183.454 162.077 185.467 160.123C187.48 158.17 187.528 154.954 185.574 152.941Z" fill="#D72638"/>
</g>
<defs>
<clipPath id="clip0_2048_450">
<rect width="200" height="200" fill="white"/>
</clipPath>
</defs>
</svg>
