<svg width="200" height="200" viewBox="0 0 200 200" fill="none" xmlns="http://www.w3.org/2000/svg">
<path d="M185.956 87.1969C185.244 65.4579 176.262 44.8104 160.844 29.4687C144.584 13.2062 122.975 4.25311 99.9999 4.25311C53.5968 4.25311 15.6811 41.1875 14.0468 87.1969C10.4688 88.7818 7.42722 91.3704 5.29067 94.649C3.15412 97.9276 2.01428 101.755 2.00928 105.669V128.363C2.01507 133.721 4.14645 138.859 7.93578 142.649C11.7251 146.438 16.8629 148.569 22.2218 148.575C25.689 148.571 29.0131 147.192 31.4648 144.74C33.9166 142.288 35.2958 138.964 35.2999 135.497V98.5313C35.2999 91.7594 30.1061 86.2375 23.503 85.5813C25.9405 45.4969 59.3093 13.6281 99.9999 13.6281C120.475 13.6281 139.728 21.6094 154.219 36.1C167.525 49.4062 175.312 66.75 176.484 85.5844C169.887 86.2469 164.703 91.7656 164.703 98.5313V135.494C164.703 142.322 169.978 147.878 176.659 148.456V157.797C176.653 162.855 174.641 167.704 171.065 171.28C167.488 174.856 162.639 176.867 157.581 176.872H143.453C142.501 174.095 140.702 171.686 138.311 169.983C135.919 168.281 133.054 167.37 130.119 167.378H115.556C113.466 167.378 111.459 167.822 109.622 168.678C107.161 169.815 105.077 171.632 103.616 173.914C102.154 176.196 101.375 178.849 101.372 181.559C101.372 185.353 102.85 188.916 105.528 191.581C106.841 192.905 108.403 193.954 110.125 194.668C111.846 195.383 113.692 195.749 115.556 195.744H130.119C136.156 195.744 141.478 191.841 143.462 186.247H157.581C173.272 186.247 186.034 173.484 186.034 157.797V146.788C189.591 145.194 192.612 142.606 194.733 139.337C196.854 136.067 197.985 132.254 197.99 128.356V105.663C197.99 97.4313 193.034 90.3438 185.956 87.1969ZM25.9218 98.5313V135.494C25.9218 137.534 24.2624 139.197 22.2186 139.197C19.3454 139.194 16.5907 138.051 14.559 136.019C12.5273 133.987 11.3845 131.233 11.3812 128.359V105.666C11.3845 102.792 12.5273 100.038 14.559 98.006C16.5907 95.9743 19.3454 94.8314 22.2186 94.8281C24.2624 94.8281 25.9218 96.4906 25.9218 98.5313ZM134.822 182.566C134.589 183.642 133.995 184.606 133.139 185.299C132.284 185.992 131.217 186.371 130.116 186.375H115.553C114.272 186.375 113.069 185.875 112.15 184.956C111.703 184.512 111.348 183.984 111.107 183.402C110.865 182.82 110.742 182.196 110.744 181.566C110.747 180.291 111.255 179.07 112.156 178.17C113.057 177.269 114.279 176.762 115.553 176.759H130.116C131.397 176.759 132.6 177.256 133.516 178.175C134.422 179.078 134.922 180.284 134.922 181.566C134.925 181.909 134.887 182.253 134.822 182.566ZM188.615 128.359C188.612 131.233 187.469 133.987 185.438 136.019C183.406 138.051 180.651 139.194 177.778 139.197C176.796 139.196 175.855 138.806 175.16 138.111C174.466 137.417 174.076 136.476 174.075 135.494V98.5313C174.075 96.4906 175.734 94.8281 177.778 94.8281C180.651 94.8314 183.406 95.9743 185.438 98.006C187.469 100.038 188.612 102.792 188.615 105.666V128.359Z" fill="#D72638"/>
<path d="M130.353 129.975C135.619 129.969 140.668 127.875 144.391 124.151C148.115 120.427 150.21 115.379 150.215 110.112V69.6406C150.215 64.3468 148.147 59.3593 144.39 55.6031C140.634 51.8468 135.65 49.7781 130.353 49.7781H69.6467C64.3806 49.7839 59.3319 51.8784 55.6082 55.6021C51.8845 59.3257 49.79 64.3745 49.7842 69.6406V110.112C49.79 115.379 51.8845 120.427 55.6082 124.151C59.3319 127.875 64.3806 129.969 69.6467 129.975H70.0186V140.462C70.0124 141.743 70.2594 143.012 70.7455 144.197C71.2316 145.382 71.9471 146.459 72.8509 147.366C73.7547 148.273 74.8289 148.993 76.0118 149.484C77.1947 149.974 78.4629 150.226 79.7436 150.225C81.0233 150.228 82.2905 149.972 83.4695 149.475C84.6485 148.977 85.7153 148.247 86.6061 147.328L104.053 129.975H130.353ZM98.8186 121.962L79.9373 140.741C79.8529 140.828 79.7904 140.894 79.6123 140.816C79.3967 140.728 79.3967 140.587 79.3967 140.462V125.287C79.3967 124.044 78.9028 122.852 78.0237 121.973C77.1447 121.094 75.9524 120.6 74.7092 120.6H69.6498C66.8694 120.597 64.2037 119.491 62.2377 117.525C60.2716 115.558 59.1656 112.893 59.1623 110.112V69.6406C59.1656 66.8601 60.2716 64.1945 62.2377 62.2284C64.2037 60.2624 66.8694 59.1564 69.6498 59.1531H130.356C133.15 59.1531 135.778 60.2468 137.765 62.2312C139.753 64.2187 140.844 66.8499 140.844 69.6406V110.112C140.84 112.893 139.734 115.558 137.768 117.525C135.802 119.491 133.136 120.597 130.356 120.6H102.125C100.884 120.6 99.6967 121.091 98.8186 121.962Z" fill="#D72638"/>
<path d="M77.2281 83.7094C73.4156 83.7094 70.3125 86.8156 70.3125 90.625C70.3125 94.4343 73.4187 97.5406 77.2281 97.5406C81.0437 97.5406 84.15 94.4343 84.15 90.625C84.15 86.8156 81.0469 83.7094 77.2281 83.7094ZM99.9969 83.7094C96.1844 83.7094 93.0812 86.8156 93.0812 90.625C93.0812 94.4343 96.1875 97.5406 99.9969 97.5406C103.816 97.5406 106.919 94.4343 106.919 90.625C106.919 86.8156 103.816 83.7094 99.9969 83.7094ZM122.766 83.7094C118.953 83.7094 115.85 86.8156 115.85 90.625C115.85 94.4343 118.956 97.5406 122.766 97.5406C126.581 97.5406 129.688 94.4343 129.688 90.625C129.688 86.8156 126.581 83.7094 122.766 83.7094Z" fill="#D72638"/>
</svg>
