<svg width="46" height="38" viewBox="0 0 46 38" fill="none" xmlns="http://www.w3.org/2000/svg">
<path fill-rule="evenodd" clip-rule="evenodd" d="M33.2804 1.45658L30.7556 2.91351L28.3106 2.01L25.8656 1.10658L24.8098 1.10297C24.003 1.10033 23.6399 1.13825 23.2701 1.2638C23.0039 1.35416 21.0243 2.43971 18.8709 3.67606C15.6113 5.5474 14.8729 6.0072 14.4619 6.42134C13.8019 7.08641 13.5627 7.68999 13.5552 8.71007C13.5504 9.37365 13.5813 9.52463 13.8291 10.0496C14.1629 10.7568 14.7272 11.3344 15.4108 11.6689C16.0575 11.9853 17.1434 12.0616 17.8254 11.8384C18.0757 11.7566 20.1058 10.6343 22.3369 9.34444C24.568 8.05459 26.5915 6.93015 26.8334 6.84569C27.3653 6.66004 27.862 6.64667 28.3812 6.8039C28.5945 6.86857 32.3845 9.01107 36.8034 11.5651L44.8376 16.2087L45.0602 16.0007C45.3845 15.6978 45.5301 15.3684 45.5301 14.9371C45.5301 14.5938 45.1331 13.8801 41.4783 7.65206C39.2499 3.85458 37.3671 0.656538 37.2943 0.545326C37.082 0.220928 36.6403 0.000352515 36.2023 5.78509e-07C35.8486 -0.000351358 35.528 0.159515 33.2804 1.45658ZM8.62373 2.13071C8.2959 2.3212 8.03881 2.77308 4.38 9.59106C0.17902 17.4194 0.27589 17.2062 0.618412 17.8686C0.74291 18.1094 1.59064 18.7403 1.78966 18.7403C1.83594 18.7403 2.18435 18.2027 2.56374 17.5455C2.94322 16.8885 3.41208 16.1634 3.60565 15.9342C5.60764 13.5643 9.10544 13.2515 11.4826 15.2299L12.0158 15.6736L12.5674 15.5353C12.8709 15.4592 13.473 15.3975 13.9054 15.3982C16.4641 15.4024 18.5005 16.9177 19.2617 19.3836L19.4467 19.9829L20.0166 20.1755C20.8593 20.4601 21.3889 20.8034 22.1343 21.5483C22.8551 22.2685 23.3507 23.1226 23.5554 23.997L23.6636 24.4587L24.1967 24.6361C25.8572 25.1887 27.1786 26.5188 27.7291 28.1917C27.9246 28.7858 27.9642 29.0684 27.9701 29.9142C27.9798 31.2949 27.8229 31.7521 26.6138 33.865C26.0778 34.8018 25.657 35.5859 25.6787 35.6075C25.8502 35.7791 29.4611 37.7805 29.7977 37.8906C30.0987 37.9891 30.4191 38.0187 30.8624 37.989C31.9862 37.9138 32.8274 37.3551 33.3186 36.3572C33.5793 35.8277 33.6078 35.6938 33.6039 35.0192C33.5989 34.1672 33.4295 33.6873 32.9351 33.1238C32.6063 32.7493 32.5685 32.7342 33.9095 33.5116C35.3096 34.3234 36.1324 34.4133 37.2274 33.8743C38.2484 33.3717 38.8766 32.3853 38.8811 31.278C38.8841 30.5138 38.6763 29.8832 38.2615 29.3987C38.09 29.1983 37.9692 29.0344 37.9928 29.0344C38.0166 29.0344 38.3067 29.1883 38.6376 29.3763C39.4801 29.8552 39.8093 29.9424 40.5925 29.8944C41.4075 29.8445 41.9832 29.5938 42.5236 29.0538C43.108 28.4698 43.3695 27.8245 43.3695 26.9668C43.3695 25.7458 42.8513 24.9215 41.6422 24.2189C41.2642 23.9993 40.9549 23.8083 40.9549 23.7946C40.9549 23.7808 41.1033 23.8105 41.2848 23.8607C42.4404 24.1797 43.8991 23.453 44.5368 22.2406C44.7547 21.8263 44.7812 21.6846 44.7804 20.9399C44.7797 20.232 44.7464 20.0366 44.5636 19.6641C44.1308 18.7815 43.9941 18.6929 35.6798 13.9011C31.3556 11.409 27.7656 9.35737 27.7021 9.34206C27.6386 9.32666 25.7345 10.3828 23.4707 11.6889C18.6087 14.4944 18.4706 14.5541 16.8473 14.5514C15.902 14.5499 15.6513 14.5176 15.0631 14.322C13.0602 13.6554 11.5257 11.9826 11.0801 9.97968C10.9692 9.48134 10.9419 9.06474 10.9747 8.37081C11.0467 6.84164 11.5326 5.71052 12.6009 4.58503C13.0244 4.13868 13.1247 3.98454 13.0408 3.90896C12.9809 3.8552 12.2193 3.40279 11.3482 2.90374C9.54114 1.86825 9.22818 1.77948 8.62373 2.13071ZM6.8842 16.6739C6.42431 16.8428 5.83191 17.2665 5.57218 17.6122C5.14898 18.1756 1.94688 23.8034 1.83101 24.1873C1.39514 25.6319 2.2118 27.273 3.63099 27.8044C4.19585 28.0159 5.12548 28.0347 5.67961 27.8457C5.89385 27.7727 6.27904 27.5541 6.53543 27.3599L7.00175 27.0069L6.93136 27.3388C6.64902 28.6712 7.3367 30.0795 8.56426 30.6823C8.99503 30.8939 9.16536 30.9261 9.85252 30.9261C10.548 30.9261 10.7032 30.8959 11.1283 30.678C11.3944 30.5416 11.7394 30.3075 11.895 30.1579L12.1778 29.8859L12.0827 30.23C11.9402 30.7459 12.0356 31.6583 12.2897 32.2101C12.8888 33.5113 14.4041 34.2239 15.7438 33.8344C16.3375 33.6617 16.5931 33.5169 17.0341 33.1029L17.3531 32.8036L17.228 33.2726C16.9727 34.2299 17.3013 35.3156 18.0739 36.0682C19.2414 37.2053 21.0993 37.1751 22.2359 36.0006C22.4836 35.7447 23.0907 34.7946 23.8427 33.4863C25.3605 30.8457 25.4019 30.7523 25.4027 29.9666C25.404 28.748 24.8118 27.7889 23.7292 27.256C23.2097 27.0002 23.0602 26.9672 22.4361 26.9705C21.6709 26.9745 21.1742 27.1404 20.5875 27.5879L20.2774 27.8244L20.6959 27.0155C21.1011 26.2325 21.1145 26.1821 21.1145 25.4429C21.1145 24.8039 21.0772 24.6002 20.8863 24.1953C20.5972 23.5826 20.0517 23.0378 19.4132 22.7243C18.9817 22.5124 18.8147 22.4805 18.167 22.4862C17.3228 22.4937 16.8291 22.6651 16.291 23.1375L15.9729 23.4169L16.4262 22.5369C16.8587 21.6977 16.8796 21.625 16.8796 20.9678C16.8796 20.4127 16.8352 20.1815 16.6514 19.78C16.3475 19.1161 15.823 18.5645 15.2011 18.2542C14.7626 18.0355 14.5875 17.9996 13.9438 17.9963C13.3172 17.993 13.1174 18.0293 12.712 18.2203C12.0251 18.5438 11.7136 18.8376 11.2377 19.611L10.8203 20.2891V19.4927C10.8203 18.7985 10.7888 18.6319 10.574 18.1945C10.2654 17.5663 9.60361 16.9603 8.96511 16.7214C8.39805 16.5092 7.39477 16.4863 6.8842 16.6739Z" fill="#D72638"/>
</svg>
