<svg width="41" height="36" viewBox="0 0 41 36" fill="none" xmlns="http://www.w3.org/2000/svg">
<path fill-rule="evenodd" clip-rule="evenodd" d="M17.1028 0.143182C17.0791 0.221891 16.9124 0.909573 16.7323 1.67122C16.5522 2.43286 16.3574 3.10295 16.2995 3.16023C16.2415 3.21758 15.8267 3.34383 15.3778 3.4407C14.9289 3.53765 14.248 3.72355 13.8648 3.85388C13.4816 3.9843 13.106 4.09091 13.0303 4.09091C12.9546 4.09091 12.3849 3.55885 11.7643 2.90864L10.636 1.72636L10.1832 1.98368C9.9341 2.12523 9.41325 2.42714 9.02576 2.65459L8.32106 3.06818L8.75895 4.54091C8.99982 5.35091 9.19725 6.07565 9.19774 6.15142C9.19848 6.27709 6.79834 8.75389 6.67463 8.75504C6.64526 8.75536 5.9287 8.54894 5.08221 8.29636C4.2358 8.04379 3.53314 7.85029 3.52087 7.86633C3.42015 7.99773 2.24402 10.0878 2.24402 10.1354C2.24402 10.1693 2.75947 10.6854 3.38947 11.2822C4.22426 12.0731 4.53492 12.4191 4.53492 12.5581C4.53492 12.6631 4.42758 13.0773 4.29642 13.4787C4.16527 13.8801 3.9946 14.5276 3.91712 14.9175C3.83972 15.3074 3.72926 15.691 3.67166 15.77C3.59966 15.8688 3.08625 16.0292 2.02597 16.284L0.484924 16.6545V18V19.3455L2.01746 19.716C2.86035 19.9197 3.60097 20.1416 3.66323 20.2091C3.7255 20.2766 3.8398 20.6602 3.9172 21.0616C3.9946 21.463 4.16527 22.1199 4.29642 22.5213C4.42758 22.9227 4.53492 23.3369 4.53492 23.4419C4.53492 23.5809 4.22426 23.9269 3.38947 24.7178C2.75947 25.3146 2.24402 25.8307 2.24402 25.8646C2.24402 25.9127 3.42261 28.0065 3.52185 28.1347C3.53462 28.1512 4.2205 27.9579 5.04588 27.7051C5.87134 27.4523 6.58701 27.2455 6.63618 27.2455C6.77617 27.2455 9.19856 29.6879 9.19856 29.829C9.19856 29.8982 8.99721 30.6227 8.7511 31.439C8.50507 32.2554 8.31173 32.9283 8.32155 32.9344C9.03075 33.374 10.5577 34.2008 10.6278 34.1833C10.6812 34.17 11.175 33.6805 11.7253 33.0955C12.2756 32.5105 12.7977 31.9984 12.8855 31.9577C12.9989 31.9051 13.2889 31.9583 13.8836 32.141C14.3448 32.2825 15.0454 32.4691 15.4407 32.5554C15.836 32.6418 16.2107 32.755 16.2735 32.8071C16.3361 32.8592 16.5208 33.4608 16.6838 34.144C16.8468 34.8273 17.0164 35.5245 17.0606 35.6932L17.1412 36H17.9972H18.8531V32.4907V28.9813L18.0145 28.9241C16.3403 28.8099 14.9166 28.4387 13.5851 27.7691C10.4655 26.2002 8.27802 23.2419 7.67568 19.7774C7.57602 19.2042 7.5541 18.6883 7.58445 17.6318C7.61898 16.4288 7.6576 16.1138 7.87065 15.3C8.36655 13.4048 9.26974 11.8015 10.6323 10.3973C12.6088 8.36035 15.0611 7.24205 17.9339 7.06762L18.8531 7.01174V3.50591V0H17.9995C17.2576 0 17.1403 0.0187364 17.1028 0.143182ZM29.4895 0.661173C28.6921 1.02215 28.3079 1.61845 28.3079 2.49545C28.3079 3.16882 28.491 3.58846 28.9673 4.00664C29.3846 4.37302 29.7252 4.5 30.2904 4.5C31.5907 4.5 32.5698 3.28958 32.2723 2.04963C31.9802 0.831927 30.6159 0.151282 29.4895 0.661173ZM19.7531 2.49545V3.02727H23.5576H27.3622V2.49545V1.96364H23.5576H19.7531V2.49545ZM35.3657 6.7383C34.1291 7.08128 33.5079 8.45885 34.0804 9.5886C34.7602 10.93 36.6359 11.0905 37.5113 9.88192C38.6245 8.34521 37.1836 6.23405 35.3657 6.7383ZM17.5849 7.99364C13.38 8.37564 9.85564 11.3791 8.72369 15.5455C8.5288 16.2628 8.51252 16.4522 8.51252 18C8.51252 19.5478 8.5288 19.7372 8.72369 20.4545C9.74813 24.2251 12.7113 27.0532 16.4395 27.8186C19.6555 28.4789 22.9103 27.5515 25.3394 25.283C29.794 21.123 29.482 13.9618 24.6795 10.1335C22.7054 8.55974 20.0776 7.76716 17.5849 7.99364ZM23.4349 8.21168C23.4349 8.22813 23.7265 8.41099 24.083 8.61807C24.4394 8.82524 24.7546 9.03265 24.7833 9.07912C24.8181 9.13541 26.1932 9.16364 28.9011 9.16364H32.9667V8.67273V8.18182H28.2008C25.5795 8.18182 23.4349 8.19524 23.4349 8.21168ZM20.2602 10.9543C24.0235 11.9348 26.3503 15.6587 25.5682 19.449C24.993 22.2361 22.8654 24.4019 20.0283 25.0885C19.1927 25.2907 17.6958 25.2728 16.783 25.0498C14.0334 24.3779 11.9415 22.215 11.3508 19.4332C11.1952 18.7003 11.2495 16.7937 11.4465 16.0773C11.6574 15.3099 12.2574 14.1466 12.7839 13.484C13.9089 12.0683 15.3909 11.1878 17.2447 10.8336C18.0245 10.6846 19.4429 10.7413 20.2602 10.9543ZM17.583 11.6937C14.3944 12.2037 12.144 14.8129 12.144 18C12.144 20.9221 14.0035 23.3445 16.8657 24.151C17.6705 24.3777 19.1 24.3961 19.9428 24.1904C21.6958 23.7627 23.2541 22.5412 24.0828 20.9455C24.6392 19.874 24.7838 19.2668 24.7838 18C24.7838 17.0714 24.7533 16.7983 24.5927 16.2853C24.1908 15.0012 23.484 13.909 22.5493 13.1274C21.9106 12.5932 20.754 12.0035 19.9986 11.827C19.3394 11.6729 18.1302 11.6062 17.583 11.6937ZM38.735 13.6693C38.004 13.9766 37.7021 14.8549 38.09 15.5451C38.5393 16.3445 39.6819 16.4185 40.2417 15.6845C40.8639 14.8687 40.3401 13.6845 39.3247 13.6111C39.1128 13.5958 38.8474 13.622 38.735 13.6693ZM28.8349 14.4488C28.8349 14.4756 28.8928 14.6965 28.9635 14.9397L29.092 15.3818H33.0544H37.0167V14.8909V14.4H32.9258C30.6758 14.4 28.8349 14.4219 28.8349 14.4488ZM38.5649 19.9861C38.1408 20.2718 37.9167 20.6601 37.9167 21.1091C37.9167 22.0881 38.996 22.7213 39.8395 22.2372C40.2743 21.9876 40.5594 21.447 40.5094 20.9664C40.468 20.5676 40.1538 20.1064 39.7984 19.9226C39.4414 19.7381 38.8909 19.7664 38.5649 19.9861ZM28.9726 21.0549C28.8969 21.2951 28.8349 21.5161 28.8349 21.5458C28.8349 21.5756 30.6758 21.6 32.9258 21.6H37.0167V21.1091V20.6182H33.0635H29.1102L28.9726 21.0549ZM34.985 25.4948C33.7182 26.1261 33.4835 27.8779 34.5413 28.8066C34.9548 29.1697 35.2943 29.2912 35.8891 29.2891C36.5467 29.2868 36.9674 29.0969 37.3977 28.6081C38.5481 27.301 37.6224 25.2906 35.8669 25.2836C35.5388 25.2823 35.2937 25.341 34.985 25.4948ZM24.7833 26.9209C24.7546 26.9674 24.4321 27.179 24.0666 27.3913L23.4023 27.7773L25.7914 27.799C27.1053 27.8109 29.2514 27.8109 30.5603 27.799L32.9402 27.7773L32.9536 27.3068L32.9669 26.8364H28.9012C26.1932 26.8364 24.8181 26.8646 24.7833 26.9209ZM29.4257 31.6779C28.6317 32.0629 28.1542 33.0204 28.3313 33.8727C28.7564 35.9178 31.579 36.0791 32.2377 34.096C32.5576 33.1333 32.0323 32.0133 31.0731 31.6125C30.6675 31.4431 29.8426 31.4758 29.4257 31.6779ZM19.7531 33.5045V34.0364H23.5576H27.3622V33.5045V32.9727H23.5576H19.7531V33.5045Z" fill="#D72638"/>
</svg>
