<svg width="69" height="69" viewBox="0 0 69 69" fill="none" xmlns="http://www.w3.org/2000/svg">
<g clip-path="url(#clip0_2048_412)">
<path d="M38.9506 39.3415H34.7186V34.684C34.7186 32.2044 33.7335 29.8263 31.9801 28.0729C30.2268 26.3195 27.8487 25.3345 25.3691 25.3345C22.8894 25.3345 20.5113 26.3195 18.758 28.0729C17.0046 29.8263 16.0196 32.2044 16.0196 34.684V39.3415H11.7875C11.6742 39.3414 11.562 39.3636 11.4573 39.4068C11.3526 39.4501 11.2575 39.5137 11.1773 39.5938C11.0972 39.6739 11.0337 39.7691 10.9904 39.8738C10.9471 39.9785 10.9249 40.0907 10.925 40.204V44.2405C10.9285 47.919 12.336 51.4574 14.8601 54.1332C17.3842 56.8091 20.8345 58.4205 24.5066 58.6385V64.239H17.6181C17.2734 64.2392 16.9328 64.3142 16.6199 64.4587C16.3069 64.6031 16.029 64.8137 15.8053 65.076C15.5815 65.3382 15.4173 65.6458 15.3238 65.9775C15.2304 66.3093 15.21 66.6574 15.264 66.9979C15.3662 67.5673 15.668 68.0816 16.1153 68.4486C16.5625 68.8155 17.1259 69.011 17.7043 69H33.1316C33.75 68.9972 34.343 68.7538 34.7851 68.3212C35.2271 67.8886 35.4833 67.301 35.4994 66.6828C35.4885 66.025 35.2173 65.3985 34.7452 64.9404C34.2731 64.4823 33.6387 64.2301 32.9809 64.239H26.2316V58.6385C29.9036 58.4205 33.3539 56.8091 35.878 54.1332C38.4021 51.4574 39.8096 47.919 39.8131 44.2405V40.204C39.8131 39.9753 39.7222 39.7559 39.5604 39.5941C39.3987 39.4324 39.1793 39.3415 38.9506 39.3415ZM17.7446 34.684C17.7506 32.6637 18.5559 30.7279 19.9844 29.2994C21.413 27.8708 23.3488 27.0656 25.3691 27.0595C27.3893 27.0656 29.3251 27.8708 30.7537 29.2994C32.1822 30.7279 32.9875 32.6637 32.9936 34.684V45.793C32.9936 47.7938 32.1987 49.7126 30.784 51.1274C29.3692 52.5422 27.4503 53.337 25.4496 53.337H25.3001C23.2981 53.3309 21.3798 52.533 19.9642 51.1173C18.5486 49.7017 17.7506 47.7835 17.7446 45.7815V34.684ZM33.1316 65.964C33.3054 65.964 33.4721 66.0331 33.5951 66.156C33.718 66.2789 33.7871 66.4457 33.7871 66.6195C33.7871 66.7934 33.718 66.9601 33.5951 67.083C33.4721 67.2059 33.3054 67.275 33.1316 67.275H17.6066C17.4327 67.2735 17.2666 67.203 17.1447 67.0789C17.0229 66.9549 16.9553 66.7876 16.9568 66.6138C16.9583 66.4399 17.0288 66.2738 17.1529 66.1519C17.2769 66.0301 17.4442 65.9625 17.6181 65.964H33.1316ZM38.0881 44.2405C38.0881 47.6138 36.748 50.8489 34.3627 53.2342C31.9775 55.6195 28.7423 56.9595 25.3691 56.9595C21.9958 56.9595 18.7606 55.6195 16.3754 53.2342C13.9901 50.8489 12.65 47.6138 12.65 44.2405V41.0665H16.0196V45.793C16.0226 48.2524 17.0017 50.6099 18.7418 52.3479C20.4819 54.0858 22.8407 55.062 25.3001 55.062H25.4381C27.8974 55.062 30.2562 54.0858 31.9963 52.3479C33.7364 50.6099 34.7155 48.2524 34.7186 45.793V41.0665H38.0881V44.2405ZM30.0151 34.5805C30.0135 34.8088 29.9222 35.0273 29.7608 35.1887C29.5993 35.3501 29.3808 35.4415 29.1526 35.443H21.5856C21.3568 35.443 21.1374 35.3521 20.9757 35.1904C20.8139 35.0286 20.7231 34.8092 20.7231 34.5805C20.7231 34.3518 20.8139 34.1324 20.9757 33.9706C21.1374 33.8089 21.3568 33.718 21.5856 33.718H29.1526C29.2659 33.7178 29.3781 33.7401 29.4828 33.7833C29.5875 33.8266 29.6826 33.8902 29.7628 33.9703C29.8429 34.0504 29.9064 34.1455 29.9497 34.2503C29.993 34.355 30.0152 34.4672 30.0151 34.5805ZM30.0151 40.204C30.0135 40.4323 29.9222 40.6508 29.7608 40.8122C29.5993 40.9736 29.3808 41.065 29.1526 41.0665H21.5856C21.3568 41.0665 21.1374 40.9756 20.9757 40.8139C20.8139 40.6521 20.7231 40.4328 20.7231 40.204C20.7231 39.9753 20.8139 39.7559 20.9757 39.5941C21.1374 39.4324 21.3568 39.3415 21.5856 39.3415H29.1526C29.2659 39.3414 29.3781 39.3636 29.4828 39.4068C29.5875 39.4501 29.6826 39.5137 29.7628 39.5938C29.8429 39.6739 29.9064 39.7691 29.9497 39.8738C29.993 39.9785 30.0152 40.0907 30.0151 40.204ZM30.0151 45.8275C30.0135 46.0558 29.9222 46.2743 29.7608 46.4357C29.5993 46.5971 29.3808 46.6885 29.1526 46.69H21.5856C21.3568 46.69 21.1374 46.5991 20.9757 46.4374C20.8139 46.2756 20.7231 46.0563 20.7231 45.8275C20.7231 45.5988 20.8139 45.3794 20.9757 45.2176C21.1374 45.0559 21.3568 44.965 21.5856 44.965H29.1526C29.2659 44.9649 29.3781 44.9871 29.4828 45.0303C29.5875 45.0736 29.6826 45.1372 29.7628 45.2173C29.8429 45.2974 29.9064 45.3925 29.9497 45.4973C29.993 45.602 30.0152 45.7142 30.0151 45.8275ZM54.2111 0H35.6041C34.5799 0.00212699 33.5983 0.409909 32.8741 1.13409C32.15 1.85827 31.7422 2.83986 31.7401 3.864V18.17C31.7401 19.1948 32.1472 20.1776 32.8718 20.9023C33.5964 21.6269 34.5793 22.034 35.6041 22.034H36.1331L35.2016 26.542C35.1658 26.7252 35.1905 26.9151 35.2719 27.0831C35.3532 27.2511 35.4869 27.3881 35.6528 27.4737C35.8187 27.5592 36.0079 27.5887 36.192 27.5575C36.376 27.5264 36.545 27.4364 36.6736 27.301L41.5726 22.034H54.2111C55.2359 22.034 56.2187 21.6269 56.9433 20.9023C57.668 20.1776 58.0751 19.1948 58.0751 18.17V3.864C58.0729 2.83986 57.6651 1.85827 56.941 1.13409C56.2168 0.409909 55.2352 0.00212699 54.2111 0ZM56.3501 18.17C56.3491 18.737 56.1235 19.2806 55.7225 19.6815C55.3216 20.0824 54.7781 20.3081 54.2111 20.309H41.2046C41.0859 20.3094 40.9685 20.3341 40.8597 20.3816C40.751 20.429 40.6531 20.4983 40.5721 20.585L37.5131 23.874L38.0306 21.3555C38.0576 21.2299 38.0562 21.0998 38.0267 20.9748C37.9971 20.8497 37.94 20.7329 37.8596 20.6326C37.7792 20.5324 37.6775 20.4514 37.5619 20.3954C37.4462 20.3394 37.3195 20.3099 37.1911 20.309H35.6041C35.037 20.3081 34.4935 20.0824 34.0926 19.6815C33.6916 19.2806 33.466 18.737 33.4651 18.17V3.864C33.466 3.29698 33.6916 2.75345 34.0926 2.35251C34.4935 1.95156 35.037 1.72591 35.6041 1.725H54.2111C54.7781 1.72591 55.3216 1.95156 55.7225 2.35251C56.1235 2.75345 56.3491 3.29698 56.3501 3.864V18.17ZM51.4281 16.813L48.3346 9.407C48.2667 9.25307 48.1556 9.12219 48.0147 9.03031C47.8738 8.93842 47.7093 8.8895 47.5411 8.8895C47.3729 8.8895 47.2083 8.93842 47.0674 9.03031C46.9265 9.12219 46.8154 9.25307 46.7476 9.407L45.5631 12.2245C45.5527 12.0913 45.5081 11.9631 45.4336 11.8522C45.359 11.7414 45.257 11.6517 45.1376 11.592C44.7754 11.3904 44.4327 11.1556 44.1141 10.8905C44.9509 9.89797 45.6474 8.79516 46.1841 7.613L47.0121 7.6245H47.0236C47.1368 7.62526 47.2491 7.60369 47.3541 7.56105C47.459 7.5184 47.5545 7.4555 47.6351 7.37595C47.7157 7.29639 47.7799 7.20173 47.8239 7.09738C47.868 6.99302 47.8911 6.88102 47.8918 6.76775C47.8926 6.65449 47.871 6.54218 47.8284 6.43725C47.7857 6.33232 47.7228 6.23681 47.6433 6.15619C47.5637 6.07556 47.469 6.0114 47.3647 5.96736C47.2603 5.92331 47.1483 5.90026 47.0351 5.8995L43.9646 5.865V5.014C43.9646 4.78525 43.8737 4.56587 43.7119 4.40412C43.5502 4.24237 43.3308 4.1515 43.1021 4.1515C42.8733 4.1515 42.6539 4.24237 42.4922 4.40412C42.3304 4.56587 42.2396 4.78525 42.2396 5.014V5.842L39.1921 5.8075H39.1806C38.9518 5.80598 38.7318 5.89538 38.569 6.05606C38.4062 6.21673 38.3138 6.4355 38.3123 6.66425C38.3108 6.893 38.4002 7.11299 38.5609 7.27581C38.7215 7.43864 38.9403 7.53098 39.1691 7.5325L39.9166 7.544C40.3108 8.75729 40.9183 9.89054 41.7106 10.8905C40.9453 11.5755 40.0604 12.1135 39.1001 12.4775C38.9936 12.5175 38.896 12.5781 38.813 12.6558C38.7299 12.7336 38.663 12.8269 38.616 12.9305C38.569 13.034 38.5429 13.1459 38.5391 13.2595C38.5354 13.3732 38.554 13.4865 38.5941 13.593C38.6341 13.6995 38.6947 13.797 38.7724 13.8801C38.8501 13.9631 38.9434 14.03 39.047 14.077C39.1506 14.124 39.2624 14.1501 39.3761 14.1539C39.4898 14.1577 39.6031 14.139 39.7096 14.099C40.8911 13.6538 41.9763 12.9862 42.9066 12.1325C43.3402 12.5013 43.8103 12.8249 44.3096 13.0985C44.4537 13.1733 44.6155 13.2075 44.7775 13.1974C44.9396 13.1872 45.0959 13.1332 45.2296 13.041L43.6426 16.813C43.5541 17.0235 43.5529 17.2604 43.6391 17.4718C43.7254 17.6831 43.8921 17.8516 44.1026 17.94C44.313 18.0285 44.55 18.0297 44.7613 17.9434C44.9727 17.8571 45.1411 17.6905 45.2296 17.48L46.0691 15.4905H49.0131L49.8411 17.48C49.9325 17.6879 50.1012 17.8522 50.3115 17.938C50.5218 18.0239 50.7572 18.0246 50.9681 17.94C51.073 17.8971 51.1683 17.8338 51.2485 17.7536C51.3286 17.6734 51.392 17.5781 51.4348 17.4731C51.4776 17.3682 51.4991 17.2557 51.498 17.1424C51.4968 17.029 51.473 16.9171 51.4281 16.813ZM41.7566 7.567L44.2636 7.59C43.8806 8.306 43.43 8.98375 42.9181 9.614C42.4464 8.9832 42.0562 8.29544 41.7566 7.567ZM46.7936 13.7655L47.5411 11.9715L48.2886 13.7655H46.7936ZM54.2111 24.679C54.2112 24.7923 54.189 24.9045 54.1457 25.0092C54.1024 25.114 54.0389 25.2091 53.9588 25.2892C53.8787 25.3693 53.7835 25.4329 53.6788 25.4762C53.5741 25.5194 53.4619 25.5417 53.3486 25.5415H42.5041C42.2753 25.5415 42.0559 25.4506 41.8942 25.2889C41.7324 25.1271 41.6416 24.9078 41.6416 24.679C41.6416 24.4503 41.7324 24.2309 41.8942 24.0691C42.0559 23.9074 42.2753 23.8165 42.5041 23.8165H53.3486C53.5768 23.818 53.7953 23.9094 53.9568 24.0708C54.1182 24.2322 54.2095 24.4507 54.2111 24.679Z" fill="#D72638"/>
</g>
<defs>
<clipPath id="clip0_2048_412">
<rect width="69" height="69" fill="white"/>
</clipPath>
</defs>
</svg>
