<svg width="74" height="73" viewBox="0 0 74 73" fill="none" xmlns="http://www.w3.org/2000/svg">
<path d="M70.5058 52.2506H65.7437V17.6954C65.7437 17.2234 65.3602 16.8399 64.8883 16.8399H29.2594V14.178C29.2594 13.706 28.8759 13.3225 28.404 13.3225H22.3259C21.8539 13.3225 21.4704 13.706 21.4704 14.178V16.8399H9.11172C8.63978 16.8399 8.25625 17.2234 8.25625 17.6954V52.2492H3.49414C3.02221 52.2492 2.63867 52.6327 2.63867 53.1046V55.9633C2.63867 58.0107 4.30398 59.6761 6.35141 59.6761H67.6471C69.6946 59.6761 71.3599 58.0107 71.3599 55.9633V53.1046C71.3613 52.6327 70.9778 52.2506 70.5058 52.2506ZM23.1813 15.0334H27.5485V37.2799H23.1813V15.0334ZM9.96719 18.5508H21.4704V38.1354C21.4704 38.6073 21.8539 38.9908 22.3259 38.9908H28.404C28.8759 38.9908 29.2594 38.6073 29.2594 38.1354V18.5508H64.0328V52.2492H9.96719V18.5508ZM69.6504 55.9633C69.6504 57.0669 68.7521 57.9651 67.6486 57.9651H6.35141C5.24785 57.9651 4.34961 57.0669 4.34961 55.9633V53.9601H69.6504V55.9633ZM20.6135 47.3088C20.6952 47.3859 20.7609 47.4784 20.8069 47.5809C20.8529 47.6834 20.8782 47.794 20.8813 47.9063C20.8845 48.0186 20.8655 48.1304 20.8254 48.2353C20.7853 48.3403 20.7249 48.4363 20.6477 48.5179C19.8535 49.3577 18.7357 49.8396 17.5809 49.8396C15.2554 49.8396 13.362 47.9476 13.362 45.6207C13.362 43.2938 15.254 41.4018 17.5809 41.4018C18.7357 41.4018 19.8535 41.8837 20.6477 42.7235C20.725 42.8051 20.7854 42.9011 20.8255 43.0061C20.8656 43.111 20.8846 43.2228 20.8814 43.3352C20.8782 43.4475 20.8529 43.558 20.8069 43.6606C20.761 43.7631 20.6952 43.8555 20.6135 43.9326C20.5319 44.0098 20.4359 44.0702 20.331 44.1103C20.226 44.1504 20.1142 44.1695 20.0019 44.1663C19.8896 44.1631 19.779 44.1378 19.6765 44.0918C19.5739 44.0459 19.4815 43.9801 19.4044 43.8984C18.9254 43.3922 18.2781 43.1128 17.5823 43.1128C16.1993 43.1128 15.0743 44.2377 15.0743 45.6207C15.0743 47.0037 16.1993 48.1287 17.5823 48.1287C18.2795 48.1287 18.9268 47.8492 19.4059 47.3431C19.4828 47.2613 19.5751 47.1956 19.6775 47.1496C19.7799 47.1036 19.8904 47.0783 20.0026 47.0751C20.1148 47.072 20.2265 47.091 20.3313 47.1311C20.4362 47.1712 20.5321 47.2316 20.6135 47.3088ZM26.1584 46.2523C27.0081 45.8631 27.5998 45.0076 27.5998 44.0139V43.867C27.5998 42.5082 26.4948 41.4033 25.1361 41.4033H22.8634C22.3914 41.4033 22.0079 41.7868 22.0079 42.2587V48.9841C22.0079 49.4561 22.3914 49.8396 22.8634 49.8396C23.3353 49.8396 23.7188 49.4561 23.7188 48.9841V46.4762H24.3105L26.0058 49.4119C26.1641 49.6856 26.4521 49.8396 26.7472 49.8396C26.8926 49.8396 27.0395 49.8025 27.1735 49.7255C27.3699 49.6119 27.5132 49.425 27.572 49.2058C27.6308 48.9866 27.6003 48.7531 27.4872 48.5564L26.1584 46.2523ZM23.7203 43.1128H25.1375C25.5524 43.1128 25.8903 43.4507 25.8903 43.8656V44.0124C25.8903 44.4273 25.5524 44.7652 25.1375 44.7652H23.7203V43.1128ZM36.9943 48.7874C37.0462 49.0082 37.0084 49.2406 36.8892 49.4336C36.77 49.6265 36.5791 49.7644 36.3584 49.8168C36.2491 49.8425 36.1359 49.8465 36.0251 49.8285C35.9143 49.8105 35.8081 49.7708 35.7127 49.7118C35.6172 49.6527 35.5343 49.5755 35.4687 49.4844C35.4031 49.3933 35.3561 49.2901 35.3304 49.1809L34.4764 45.5594L33.37 49.2308C33.3168 49.4069 33.2084 49.5612 33.0608 49.6709C32.9131 49.7805 32.7341 49.8398 32.5501 49.8398C32.3662 49.8398 32.1872 49.7805 32.0395 49.6709C31.8918 49.5612 31.7834 49.4069 31.7303 49.2308L30.6239 45.5594L29.7699 49.1809C29.7442 49.2904 29.6972 49.3937 29.6316 49.4849C29.5659 49.5762 29.4829 49.6536 29.3872 49.7127C29.2916 49.7718 29.1852 49.8114 29.0742 49.8292C28.9632 49.8471 28.8498 49.8429 28.7404 49.8168C28.6311 49.791 28.5278 49.744 28.4366 49.6783C28.3454 49.6126 28.2681 49.5295 28.2091 49.4339C28.15 49.3383 28.1104 49.232 28.0924 49.1211C28.0745 49.0101 28.0786 48.8967 28.1045 48.7874L29.69 42.062C29.7331 41.8786 29.8356 41.7146 29.9816 41.5955C30.1275 41.4763 30.3087 41.4088 30.497 41.4033C30.8862 41.3947 31.2313 41.6414 31.3425 42.0121L32.5487 46.0185L33.7549 42.0121C33.8091 41.8316 33.9214 41.6742 34.0743 41.5641C34.2272 41.454 34.4121 41.3975 34.6004 41.4033C34.9868 41.4147 35.3176 41.6856 35.4074 42.062L36.9943 48.7874ZM14.5682 38.9908H19.7808C20.2528 38.9908 20.6363 38.6073 20.6363 38.1354V27.0955C20.6363 26.6236 20.2528 26.2401 19.7808 26.2401H14.5682C14.0962 26.2401 13.7127 26.6236 13.7127 27.0955V38.1354C13.7127 38.6087 14.0948 38.9908 14.5682 38.9908ZM15.4236 27.9524H18.9254V37.2813H15.4236V27.9524ZM36.1616 19.7827H30.949C30.477 19.7827 30.0935 20.1662 30.0935 20.6382V38.1368C30.0935 38.6087 30.477 38.9923 30.949 38.9923H36.1616C36.6336 38.9923 37.0171 38.6087 37.0171 38.1368V20.6382C37.0171 20.1648 36.635 19.7827 36.1616 19.7827ZM35.3062 37.2799H31.8044V21.4936H35.3062V37.2799ZM57.7708 26.8874C58.2384 26.2558 58.4979 25.483 58.4979 24.6632C58.4979 22.5958 56.8169 20.9148 54.7495 20.9148C53.1712 20.9148 51.7868 21.9214 51.245 23.3386C51.0539 23.3087 50.8586 23.293 50.6604 23.293C50.4907 23.293 50.3225 23.3058 50.1585 23.3272C49.621 21.9014 48.2508 20.9148 46.6539 20.9148C44.5866 20.9148 42.9056 22.5958 42.9056 24.6632C42.9056 25.483 43.1651 26.2558 43.6327 26.8874C42.1029 27.827 41.1162 29.5165 41.1162 31.3643V35.7572C41.1162 36.2291 41.4998 36.6126 41.9717 36.6126H45.1227V38.1354C45.1227 38.6073 45.5062 38.9908 45.9781 38.9908H55.3441C55.816 38.9908 56.1996 38.6073 56.1996 38.1354V36.6126H59.4332C59.9052 36.6126 60.2887 36.2291 60.2887 35.7572V31.3643C60.2873 29.5165 59.3006 27.827 57.7708 26.8874ZM45.1227 33.7425V34.9017H42.8272V31.3643C42.8272 29.796 43.8837 28.3973 45.3964 27.9624C45.7229 27.8683 45.9639 27.5903 46.0081 27.2524C46.0523 26.9145 45.894 26.5837 45.6031 26.4083C44.9858 26.0348 44.6179 25.3832 44.6179 24.6632C44.6179 23.5396 45.5319 22.6257 46.6554 22.6257C47.5237 22.6257 48.2679 23.1632 48.5602 23.9389C47.5664 24.6133 46.9134 25.7525 46.9134 27.0414C46.9134 27.8612 47.1729 28.634 47.6406 29.2656C46.1093 30.2052 45.1227 31.8947 45.1227 33.7425ZM54.4886 37.2799H46.8336V33.7425C46.8336 32.1742 47.8901 30.7755 49.4029 30.3406C49.5628 30.2947 49.7058 30.2031 49.8145 30.0771C49.9232 29.9511 49.9927 29.7961 50.0147 29.6312C50.0366 29.4663 50.01 29.2985 49.938 29.1485C49.8661 28.9985 49.7519 28.8727 49.6096 28.7865C48.9922 28.413 48.6244 27.7614 48.6244 27.0414C48.6244 25.9178 49.5383 25.0039 50.6618 25.0039C51.7853 25.0039 52.6993 25.9178 52.6993 27.0414C52.6993 27.7614 52.3314 28.4144 51.7141 28.7865C51.5716 28.8724 51.4574 28.9981 51.3855 29.148C51.3135 29.298 51.287 29.4657 51.3091 29.6306C51.3533 29.9685 51.5943 30.2465 51.9208 30.3406C53.4335 30.7755 54.49 32.1742 54.49 33.7425V37.2799H54.4886ZM58.5763 34.9017H56.1981V33.7425C56.1981 31.8947 55.2101 30.2052 53.6816 29.2656C54.1493 28.634 54.4088 27.8612 54.4088 27.0414C54.4088 25.7824 53.7843 24.6674 52.829 23.9873C53.1113 23.1946 53.8741 22.6257 54.7481 22.6257C55.8716 22.6257 56.7855 23.5396 56.7855 24.6632C56.7855 25.3832 56.4177 26.0362 55.8003 26.4083C55.6579 26.4942 55.5437 26.6199 55.4717 26.7698C55.3998 26.9198 55.3733 27.0875 55.3954 27.2524C55.4396 27.5903 55.6806 27.8683 56.0071 27.9624C57.5198 28.3973 58.5763 29.796 58.5763 31.3643V34.9017ZM60.2873 43.4093C60.2873 43.8813 59.9037 44.2648 59.4318 44.2648H41.9717C41.4998 44.2648 41.1162 43.8813 41.1162 43.4093C41.1162 42.9374 41.4998 42.5539 41.9717 42.5539H59.4318C59.9052 42.5539 60.2873 42.936 60.2873 43.4093ZM60.2873 47.9918C60.2873 48.4637 59.9037 48.8473 59.4318 48.8473H41.9717C41.4998 48.8473 41.1162 48.4637 41.1162 47.9918C41.1162 47.5199 41.4998 47.1363 41.9717 47.1363H59.4318C59.9052 47.1363 60.2873 47.5199 60.2873 47.9918Z" fill="#D72638"/>
</svg>
