<svg width="60" height="59" viewBox="0 0 60 59" fill="none" xmlns="http://www.w3.org/2000/svg">
<path d="M43.0077 45.1464C43.965 45.1457 44.8829 44.7716 45.5599 44.1062C46.2369 43.4409 46.6177 42.5386 46.6187 41.5975V37.001C46.6187 36.0596 46.2383 35.1567 45.5611 34.491C44.8839 33.8252 43.9654 33.4512 43.0077 33.4512C42.05 33.4512 41.1316 33.8252 40.4544 34.491C39.7772 35.1567 39.3967 36.0596 39.3967 37.001V41.5975C39.3979 42.5385 39.7788 43.4406 40.4558 44.106C41.1327 44.7713 42.0505 45.1454 43.0077 45.1464ZM41.2405 37.001C41.2405 36.5403 41.4267 36.0984 41.7581 35.7726C42.0895 35.4468 42.539 35.2637 43.0077 35.2637C43.4764 35.2637 43.9259 35.4468 44.2573 35.7726C44.5888 36.0984 44.7749 36.5403 44.7749 37.001V41.5975C44.7749 42.0583 44.5888 42.5002 44.2573 42.826C43.9259 43.1518 43.4764 43.3348 43.0077 43.3348C42.539 43.3348 42.0895 43.1518 41.7581 42.826C41.4267 42.5002 41.2405 42.0583 41.2405 41.5975V37.001Z" fill="#D72638"/>
<path d="M49.0646 42.5727C48.9513 42.5304 48.8306 42.5105 48.7095 42.5142C48.5883 42.5178 48.4691 42.545 48.3587 42.5941C48.2483 42.6432 48.1488 42.7132 48.066 42.8002C47.9833 42.8872 47.9188 42.9894 47.8763 43.101C47.4979 44.0687 46.83 44.9009 45.9607 45.4878C45.0914 46.0747 44.0615 46.3887 43.0069 46.3884C41.9523 46.3882 40.9226 46.0736 40.0536 45.4862C39.1846 44.8988 38.5172 44.0662 38.1394 43.0983C38.0526 42.8736 37.8786 42.6919 37.6555 42.5934C37.4325 42.4948 37.1788 42.4873 36.9502 42.5727C36.7216 42.658 36.5368 42.8291 36.4366 43.0483C36.3363 43.2676 36.3287 43.517 36.4155 43.7417C36.8733 44.906 37.6413 45.9278 38.639 46.7C39.6366 47.4722 40.8272 47.9664 42.086 48.1307V49.906H40.5722C40.3277 49.906 40.0933 50.0015 39.9204 50.1715C39.7475 50.3414 39.6504 50.5719 39.6504 50.8123C39.6504 51.0526 39.7475 51.2831 39.9204 51.4531C40.0933 51.6231 40.3277 51.7185 40.5722 51.7185C41.7919 51.7167 44.2247 51.7194 45.4434 51.7185C45.6879 51.7185 45.9224 51.6231 46.0953 51.4531C46.2682 51.2831 46.3653 51.0526 46.3653 50.8123C46.3653 50.5719 46.2682 50.3414 46.0953 50.1715C45.9224 50.0015 45.6879 49.906 45.4434 49.906H43.9297V48.1361C45.1908 47.9751 46.3839 47.4813 47.3824 46.7073C48.381 45.9333 49.1477 44.9078 49.6011 43.7399C49.6872 43.5151 49.679 43.2658 49.5782 43.0469C49.4774 42.828 49.2932 42.6574 49.0646 42.5727Z" fill="#D72638"/>
<path d="M43.0077 30.3519C42.2418 30.3542 41.4777 30.4261 40.7252 30.5667V13.4684C40.7242 12.5578 40.3558 11.6847 39.7008 11.0408C39.0457 10.3969 38.1576 10.0347 37.2313 10.0338H33.8572V7.56241C33.8562 6.65089 33.4874 5.77699 32.8317 5.13253C32.1759 4.48808 31.2869 4.12572 30.3596 4.125H8.04379C7.11671 4.12596 6.22789 4.48842 5.57235 5.13285C4.91681 5.77728 4.5481 6.65104 4.54712 7.56241V45.5307C4.5481 46.442 4.91681 47.3158 5.57235 47.9602C6.22789 48.6046 7.11671 48.9671 8.04379 48.9681H12.7684L17.8894 53.8908C18.5539 54.5298 19.449 54.8837 20.3785 54.875H37.2303C37.9504 54.8764 38.6527 54.6554 39.2382 54.2433C40.4572 54.6257 41.7291 54.8201 43.0087 54.8197C59.5121 54.1509 59.5194 31.0243 43.0087 30.351L43.0077 30.3519ZM6.39087 45.5316V7.5615C6.39184 7.13093 6.56633 6.71827 6.87613 6.4139C7.18593 6.10952 7.60579 5.93822 8.04379 5.9375H30.3596C30.7978 5.93822 31.2178 6.10965 31.5276 6.41422C31.8374 6.71879 32.0118 7.13168 32.0125 7.56241V10.0338H14.9118C13.9854 10.0347 13.0973 10.3969 12.4423 11.0408C11.7873 11.6847 11.4188 12.5578 11.4179 13.4684V46.1958C11.424 46.5211 11.4739 46.8441 11.5663 47.1565H8.04471C7.60624 47.156 7.18586 46.9846 6.87581 46.6798C6.56576 46.375 6.39136 45.9626 6.39087 45.5316ZM13.5437 47.1284H18.6564C18.8669 47.1286 19.0688 47.2109 19.2177 47.3571C19.3667 47.5034 19.4506 47.7017 19.4511 47.9087V52.8051C19.3543 52.7444 13.6064 47.2199 13.5437 47.1284ZM21.2948 53.0625V47.9087C21.2938 47.2212 21.0155 46.5623 20.5209 46.0763C20.0262 45.5904 19.3557 45.3173 18.6564 45.3168H13.2625V13.4684C13.263 13.0384 13.437 12.626 13.7464 12.3219C14.0557 12.0178 14.4752 11.8467 14.9127 11.8463H37.2313C37.6688 11.8467 38.0882 12.0178 38.3976 12.3219C38.7069 12.626 38.8809 13.0384 38.8814 13.4684V31.0569C29.0081 34.43 27.6161 47.8171 36.6136 53.0625H21.2948ZM43.0077 53.0081C40.197 53.005 37.5023 51.906 35.5148 49.9522C33.5273 47.9984 32.4094 45.3493 32.4062 42.5863C32.9888 28.7596 53.0285 28.7641 53.6093 42.5863C53.6061 45.3493 52.4882 47.9984 50.5007 49.9522C48.5132 51.906 45.8185 53.005 43.0077 53.0081Z" fill="#D72638"/>
<path d="M23.0455 17.8637H34.108C34.3525 17.8637 34.587 17.7683 34.7599 17.5983C34.9328 17.4284 35.0299 17.1978 35.0299 16.9575C35.0299 16.7171 34.9328 16.4866 34.7599 16.3167C34.587 16.1467 34.3525 16.0512 34.108 16.0512H23.0455C22.801 16.0512 22.5665 16.1467 22.3937 16.3167C22.2208 16.4866 22.1236 16.7171 22.1236 16.9575C22.1236 17.1978 22.2208 17.4284 22.3937 17.5983C22.5665 17.7683 22.801 17.8637 23.0455 17.8637ZM17.4009 23.0294H34.7377C34.9822 23.0294 35.2166 22.9339 35.3895 22.7639C35.5624 22.594 35.6595 22.3635 35.6595 22.1231C35.6595 21.8828 35.5624 21.6523 35.3895 21.4823C35.2166 21.3124 34.9822 21.2169 34.7377 21.2169H17.4009C17.1564 21.2169 16.9219 21.3124 16.749 21.4823C16.5761 21.6523 16.479 21.8828 16.479 22.1231C16.479 22.3635 16.5761 22.594 16.749 22.7639C16.9219 22.9339 17.1564 23.0294 17.4009 23.0294ZM17.4009 28.195H23.6752C23.9197 28.195 24.1541 28.0995 24.327 27.9296C24.4999 27.7596 24.597 27.5291 24.597 27.2887C24.597 27.0484 24.4999 26.8179 24.327 26.6479C24.1541 26.478 23.9197 26.3825 23.6752 26.3825H17.4009C17.1564 26.3825 16.9219 26.478 16.749 26.6479C16.5761 26.8179 16.479 27.0484 16.479 27.2887C16.479 27.5291 16.5761 27.7596 16.749 27.9296C16.9219 28.0995 17.1564 28.195 17.4009 28.195ZM34.7377 26.3825H27.3627C27.1182 26.3825 26.8837 26.478 26.7108 26.6479C26.5379 26.8179 26.4408 27.0484 26.4408 27.2887C26.4408 27.5291 26.5379 27.7596 26.7108 27.9296C26.8837 28.0995 27.1182 28.195 27.3627 28.195H34.7377C34.9822 28.195 35.2166 28.0995 35.3895 27.9296C35.5624 27.7596 35.6595 27.5291 35.6595 27.2887C35.6595 27.0484 35.5624 26.8179 35.3895 26.6479C35.2166 26.478 34.9822 26.3825 34.7377 26.3825ZM17.4009 33.3606H31.0502C31.2947 33.3606 31.5291 33.2651 31.702 33.0952C31.8749 32.9252 31.972 32.6947 31.972 32.4544C31.972 32.214 31.8749 31.9835 31.702 31.8136C31.5291 31.6436 31.2947 31.5481 31.0502 31.5481H17.4009C17.1564 31.5481 16.9219 31.6436 16.749 31.8136C16.5761 31.9835 16.479 32.214 16.479 32.4544C16.479 32.6947 16.5761 32.9252 16.749 33.0952C16.9219 33.2651 17.1564 33.3606 17.4009 33.3606ZM28.5768 36.7137H17.4009C17.1564 36.7137 16.9219 36.8092 16.749 36.9792C16.5761 37.1491 16.479 37.3796 16.479 37.62C16.479 37.8603 16.5761 38.0909 16.749 38.2608C16.9219 38.4308 17.1564 38.5262 17.4009 38.5262H28.5768C28.8213 38.5262 29.0557 38.4308 29.2286 38.2608C29.4015 38.0909 29.4986 37.8603 29.4986 37.62C29.4986 37.3796 29.4015 37.1491 29.2286 36.9792C29.0557 36.8092 28.8213 36.7137 28.5768 36.7137ZM28.2845 42.7856C28.2845 42.5453 28.1874 42.3148 28.0145 42.1448C27.8416 41.9748 27.6072 41.8794 27.3627 41.8794H19.9877C19.7432 41.8794 19.5087 41.9748 19.3358 42.1448C19.1629 42.3148 19.0658 42.5453 19.0658 42.7856C19.0658 43.026 19.1629 43.2565 19.3358 43.4264C19.5087 43.5964 19.7432 43.6919 19.9877 43.6919H27.3627C27.6072 43.6919 27.8416 43.5964 28.0145 43.4264C28.1874 43.2565 28.2845 43.026 28.2845 42.7856ZM28.5768 47.045H25.3096C25.0651 47.045 24.8307 47.1405 24.6578 47.3104C24.4849 47.4804 24.3878 47.7109 24.3878 47.9512C24.3878 48.1916 24.4849 48.4221 24.6578 48.5921C24.8307 48.762 25.0651 48.8575 25.3096 48.8575H28.5768C28.8213 48.8575 29.0557 48.762 29.2286 48.5921C29.4015 48.4221 29.4986 48.1916 29.4986 47.9512C29.4986 47.7109 29.4015 47.4804 29.2286 47.3104C29.0557 47.1405 28.8213 47.045 28.5768 47.045Z" fill="#D72638"/>
</svg>
