<svg width="63" height="63" viewBox="0 0 63 63" fill="none" xmlns="http://www.w3.org/2000/svg">
<g clip-path="url(#clip0_2048_398)">
<path d="M58.3667 28.5033V27.3667C58.3667 20.2412 55.5361 13.4075 50.4976 8.36906C45.4591 3.33059 38.6255 0.5 31.5 0.5C24.3745 0.5 17.5409 3.33059 12.5024 8.36906C7.46392 13.4075 4.63333 20.2412 4.63333 27.3667V28.5033C3.46713 28.7432 2.41926 29.3777 1.66634 30.3C0.913426 31.2224 0.501503 32.3761 0.5 33.5667L0.5 41.8333C0.501641 43.2031 1.04651 44.5163 2.01509 45.4849C2.98368 46.4535 4.29689 46.9984 5.66667 47H9.8C10.5234 46.9988 11.2237 46.7447 11.7794 46.2816C12.3352 45.8184 12.7115 45.1755 12.8432 44.4642C14.1439 47.1993 16.0283 49.616 18.3639 51.5441C20.6995 53.4723 23.4293 54.865 26.3612 55.6242C25.8256 56.216 25.4737 56.9508 25.3483 57.7391C25.223 58.5274 25.3296 59.3351 25.6552 60.0638C25.9808 60.7926 26.5114 61.4109 27.1822 61.8435C27.853 62.276 28.6352 62.5041 29.4333 62.5H34.6C35.0335 62.4986 35.4619 62.4059 35.8571 62.2279C36.2524 62.0498 36.6057 61.7904 36.894 61.4667H42.8667C46.8127 61.4602 50.6078 59.9495 53.4789 57.2424C56.3499 54.5353 58.0809 50.8355 58.3191 46.8967C59.4944 46.667 60.5535 46.0368 61.316 45.1134C62.0784 44.1901 62.4969 43.0308 62.5 41.8333V33.5667C62.4985 32.3761 62.0866 31.2224 61.3337 30.3C60.5807 29.3777 59.5329 28.7432 58.3667 28.5033ZM31.5 2.56667C38.075 2.57432 44.3785 5.18963 49.0278 9.83887C53.677 14.4881 56.2923 20.7916 56.3 27.3667V28.4H54.2333V27.3667C54.2333 21.3374 51.8382 15.5551 47.5749 11.2918C43.3116 7.02845 37.5293 4.63333 31.5 4.63333C25.4707 4.63333 19.6884 7.02845 15.4251 11.2918C11.1618 15.5551 8.76667 21.3374 8.76667 27.3667V28.4H6.7V27.3667C6.70766 20.7916 9.32297 14.4881 13.9722 9.83887C18.6215 5.18963 24.925 2.57432 31.5 2.56667ZM52.1243 46.7933C51.9163 49.106 50.8513 51.2573 49.1385 52.825C47.4256 54.3928 45.1886 55.2636 42.8667 55.2667H37.9191C40.5834 54.3871 43.0416 52.9763 45.145 51.1196C47.2485 49.2629 48.9535 46.9987 50.1568 44.4642C50.2563 44.989 50.4897 45.4793 50.8344 45.8874C51.1791 46.2954 51.6235 46.6075 52.1243 46.7933ZM31.5 14.9667C27.1452 14.9727 22.9032 16.3524 19.3781 18.9094C15.853 21.4664 13.2245 25.0703 11.8667 29.2081C11.5662 28.9356 11.2151 28.725 10.8333 28.5881V27.3667C10.8333 21.8855 13.0107 16.6289 16.8865 12.7531C20.7622 8.87737 26.0189 6.7 31.5 6.7C36.9811 6.7 42.2378 8.87737 46.1135 12.7531C49.9893 16.6289 52.1667 21.8855 52.1667 27.3667V28.5901C51.7849 28.727 51.4338 28.9377 51.1333 29.2101C49.7759 25.072 47.1475 21.4676 43.6223 18.9102C40.0972 16.3529 35.8551 14.9728 31.5 14.9667ZM10.8333 43.9C10.8333 44.174 10.7245 44.4369 10.5307 44.6307C10.3369 44.8245 10.0741 44.9333 9.8 44.9333H5.66667C4.8445 44.9333 4.056 44.6067 3.47464 44.0254C2.89327 43.444 2.56667 42.6555 2.56667 41.8333V33.5667C2.56667 32.7445 2.89327 31.956 3.47464 31.3746C4.056 30.7933 4.8445 30.4667 5.66667 30.4667H9.8C10.0741 30.4667 10.3369 30.5755 10.5307 30.7693C10.7245 30.9631 10.8333 31.2259 10.8333 31.5V43.9ZM12.9 35.6333C12.9 31.9546 13.9909 28.3585 16.0347 25.2997C18.0785 22.241 20.9834 19.857 24.3821 18.4492C27.7808 17.0414 31.5206 16.673 35.1287 17.3907C38.7367 18.1084 42.0509 19.8799 44.6522 22.4811C47.2534 25.0824 49.0249 28.3966 49.7426 32.0047C50.4603 35.6127 50.0919 39.3525 48.6842 42.7512C47.2764 46.1499 44.8924 49.0549 41.8336 51.0987C38.7748 53.1425 35.1787 54.2333 31.5 54.2333C26.5687 54.2276 21.8411 52.2661 18.3542 48.7792C14.8672 45.2922 12.9057 40.5646 12.9 35.6333ZM35.6333 59.4C35.6333 59.674 35.5245 59.9369 35.3307 60.1307C35.1369 60.3245 34.8741 60.4333 34.6 60.4333H29.4333C28.8852 60.4333 28.3596 60.2156 27.972 59.828C27.5844 59.4404 27.3667 58.9148 27.3667 58.3667C27.3667 57.8185 27.5844 57.2929 27.972 56.9053C28.3596 56.5177 28.8852 56.3 29.4333 56.3H34.6C34.8741 56.3 35.1369 56.4089 35.3307 56.6026C35.5245 56.7964 35.6333 57.0593 35.6333 57.3333V59.4ZM42.8667 59.4H37.7V57.3333H42.8667C45.7008 57.3296 48.4314 56.2682 50.5241 54.3569C52.6167 52.4456 53.9207 49.8221 54.1806 47H56.2473C55.9851 50.3708 54.4622 53.5191 51.9824 55.8172C49.5025 58.1153 46.2477 59.3946 42.8667 59.4ZM60.4333 41.8333C60.4333 42.6555 60.1067 43.444 59.5254 44.0254C58.944 44.6067 58.1555 44.9333 57.3333 44.9333H53.2C52.9259 44.9333 52.6631 44.8245 52.4693 44.6307C52.2755 44.4369 52.1667 44.174 52.1667 43.9V31.5C52.1667 31.2259 52.2755 30.9631 52.4693 30.7693C52.6631 30.5755 52.9259 30.4667 53.2 30.4667H57.3333C58.1555 30.4667 58.944 30.7933 59.5254 31.3746C60.1067 31.956 60.4333 32.7445 60.4333 33.5667V41.8333Z" fill="#D72638"/>
<path d="M19.7076 37.5967C20.8184 36.7886 22.2 35.7842 22.2 33.7547C22.2228 32.9082 21.9095 32.0871 21.3286 31.4709C20.7477 30.8547 19.9464 30.4937 19.1 30.4667C18.4536 30.5064 17.8308 30.724 17.3004 31.0955C16.7699 31.4669 16.3524 31.9778 16.094 32.5716C15.982 32.8196 15.9724 33.1019 16.0673 33.357C16.1622 33.6121 16.3539 33.8195 16.6008 33.9341C16.8477 34.0487 17.1298 34.0612 17.3859 33.969C17.642 33.8768 17.8513 33.6873 17.9685 33.4416C17.9685 33.4323 18.4242 32.5333 19.1 32.5333C19.3984 32.5597 19.6744 32.7027 19.8679 32.9315C20.0614 33.1602 20.1568 33.4561 20.1333 33.7547C20.1333 34.6847 19.5402 35.1621 18.4924 35.9247C17.3816 36.7318 16 37.7372 16 39.7667C16 40.0407 16.1089 40.3036 16.3027 40.4973C16.4964 40.6911 16.7593 40.8 17.0333 40.8H21.1667C21.4407 40.8 21.7036 40.6911 21.8973 40.4973C22.0911 40.3036 22.2 40.0407 22.2 39.7667C22.2 39.4926 22.0911 39.2298 21.8973 39.036C21.7036 38.8422 21.4407 38.7333 21.1667 38.7333H18.4025C18.7809 38.294 19.2204 37.9112 19.7076 37.5967ZM30.4667 36.6667H29.4333V35.6333C29.4333 35.3593 29.3245 35.0964 29.1307 34.9027C28.9369 34.7089 28.6741 34.6 28.4 34.6C28.1259 34.6 27.8631 34.7089 27.6693 34.9027C27.4755 35.0964 27.3667 35.3593 27.3667 35.6333V36.6667H26.3333V31.5C26.3333 31.2259 26.2245 30.9631 26.0307 30.7693C25.8369 30.5755 25.5741 30.4667 25.3 30.4667C25.0259 30.4667 24.7631 30.5755 24.5693 30.7693C24.3755 30.9631 24.2667 31.2259 24.2667 31.5V37.7C24.2667 37.9741 24.3755 38.2369 24.5693 38.4307C24.7631 38.6245 25.0259 38.7333 25.3 38.7333H27.3667V39.7667C27.3667 40.0407 27.4755 40.3036 27.6693 40.4973C27.8631 40.6911 28.1259 40.8 28.4 40.8C28.6741 40.8 28.9369 40.6911 29.1307 40.4973C29.3245 40.3036 29.4333 40.0407 29.4333 39.7667V38.7333H30.4667C30.7407 38.7333 31.0036 38.6245 31.1973 38.4307C31.3911 38.2369 31.5 37.9741 31.5 37.7C31.5 37.4259 31.3911 37.1631 31.1973 36.9693C31.0036 36.7755 30.7407 36.6667 30.4667 36.6667ZM33.36 41.8127C33.428 41.8269 33.4972 41.8338 33.5667 41.8333C33.8047 41.8331 34.0354 41.7508 34.2197 41.6002C34.404 41.4495 34.5307 41.2399 34.5783 41.0067L36.645 30.6733C36.6884 30.409 36.6275 30.1381 36.4751 29.9178C36.3227 29.6975 36.0907 29.5449 35.828 29.4924C35.5653 29.4399 35.2924 29.4914 35.067 29.6362C34.8416 29.7809 34.6812 30.0075 34.6196 30.2683L32.553 40.6016C32.5006 40.8691 32.556 41.1465 32.7071 41.3733C32.8583 41.6001 33.0929 41.7581 33.36 41.8127ZM39.7667 32.5333H43.0733L38.8956 39.219C38.7503 39.452 38.7036 39.7331 38.7656 40.0005C38.8276 40.2679 38.9933 40.4998 39.2262 40.645C39.4592 40.7903 39.7403 40.837 40.0077 40.775C40.2751 40.713 40.507 40.5473 40.6522 40.3143L45.8189 32.0477C45.9171 31.8906 45.9712 31.71 45.9757 31.5248C45.9802 31.3396 45.9347 31.1566 45.8442 30.995C45.7537 30.8334 45.6214 30.699 45.4611 30.6061C45.3009 30.5132 45.1186 30.465 44.9333 30.4667H39.7667C39.4926 30.4667 39.2298 30.5755 39.036 30.7693C38.8422 30.9631 38.7333 31.2259 38.7333 31.5C38.7333 31.7741 38.8422 32.0369 39.036 32.2307C39.2298 32.4245 39.4926 32.5333 39.7667 32.5333Z" fill="#D72638"/>
</g>
<defs>
<clipPath id="clip0_2048_398">
<rect width="62" height="62" fill="white" transform="translate(0.5 0.5)"/>
</clipPath>
</defs>
</svg>
